Jump_normalized_Motion_pl08
version=1
nRows=16
nColumns=43
inDegrees=yes
endheader
time		pelvis_tilt		pelvis_list		pelvis_rotation		pelvis_tx		pelvis_ty		pelvis_tz		hip_flexion_r		hip_adduction_r		hip_rotation_r		knee_angle_r		ankle_angle_r		subtalar_angle_r		mtp_angle_r		hip_flexion_l		hip_adduction_l		hip_rotation_l		knee_angle_l		ankle_angle_l		subtalar_angle_l		mtp_angle_l		lumbar_extension		lumbar_bending		lumbar_rotation		neck_flexion		neck_lateral_bending		neck_rotation		arm_flex_r		arm_add_r		arm_rot_r		elbow_flex_r		pro_sup_r		wrist_flex_r		wrist_dev_r		hand_finger_flex_r		arm_flex_l		arm_add_l		arm_rot_l		elbow_flex_l		pro_sup_l		wrist_flex_l		wrist_dev_l		hand_finger_flex_l		
0.082500		-0.624672		-13.800978		88.347513		0.064063		1.744441		1.814234		84.731814		-2.936977		2.989718		-150.576104		24.982488		-2.748135		9.665389		81.169775		-8.414689		16.823139		-149.138160		22.839900		30.219127		25.536262		-46.313859		-2.965134		3.007890		38.771016		1.002564		-6.672258		79.694411		-30.111275		8.480666		78.203865		102.083314		-3.032049		-9.242346		-1.210457		88.585215		-20.745701		24.815373		51.095616		118.902813		-21.784854		-7.256204		22.975736		
0.084924		-0.634294		-14.152328		88.297008		0.063638		1.744914		1.811821		84.621715		-2.963524		3.024217		-150.395073		25.053177		-2.794951		9.622733		81.010477		-8.414940		16.639917		-148.993253		22.843675		30.100580		25.593040		-45.968211		-2.927214		3.037341		39.027042		1.031604		-6.657289		80.780545		-29.898376		8.652940		78.101973		102.147429		-2.984273		-9.193655		-1.155467		89.432010		-20.582969		24.904082		51.025085		118.994938		-21.734790		-7.103739		22.903151		
0.087348		-0.636532		-14.363810		88.269095		0.063153		1.745468		1.809333		84.323590		-2.995533		3.032318		-150.248071		25.197698		-2.874231		9.520179		80.729451		-8.385193		16.340555		-148.880562		22.877484		29.648316		25.740274		-45.755387		-2.851079		3.043221		39.041627		0.931310		-6.539840		82.037188		-29.886693		9.172742		77.953674		102.257947		-2.738720		-9.150954		-0.976655		90.368340		-20.628539		25.360986		51.039705		119.299371		-21.567866		-6.861086		22.752244		
0.089773		-0.597219		-14.727303		88.256423		0.062799		1.745912		1.806831		84.180263		-3.006674		3.000219		-150.069317		25.256832		-2.897643		9.487982		80.620579		-8.386264		16.187161		-148.731672		22.872010		29.492692		25.790251		-45.380498		-2.776860		3.074401		39.240778		0.971442		-6.525697		83.059782		-29.657073		9.311921		77.832602		102.283172		-2.648225		-9.115709		-0.926800		91.180931		-20.469278		25.413327		50.956439		119.394273		-21.501361		-6.733518		22.677222		
0.092197		-0.503286		-14.982564		88.282842		0.062493		1.746368		1.804275		83.889622		-3.001070		2.880390		-149.895440		25.415668		-3.000462		9.414034		80.415933		-8.386612		16.050606		-148.626659		22.856679		28.992315		25.922550		-45.093593		-2.616685		3.114529		39.211043		0.895513		-6.406945		84.259859		-29.599765		9.818383		77.629547		102.314516		-2.271508		-9.095205		-0.751692		92.092420		-20.506537		25.805337		50.876456		119.700259		-21.256362		-6.540988		22.505181		
0.094621		-0.397643		-15.347104		88.303103		0.062324		1.746761		1.801699		83.726074		-2.991011		2.749530		-149.703923		25.480119		-3.044023		9.379025		80.318802		-8.421660		16.001738		-148.485602		22.827779		28.772239		25.986520		-44.692729		-2.488185		3.171161		39.356913		0.946862		-6.383435		85.264625		-29.359589		10.009338		77.452097		102.328593		-2.121318		-9.048338		-0.689671		92.894710		-20.382868		25.893745		50.750012		119.825040		-21.133360		-6.404416		22.394178		
0.097045		-0.201354		-15.634773		88.373629		0.062296		1.747174		1.799099		83.433034		-2.935383		2.441981		-149.514532		25.605146		-3.208665		9.316352		80.205341		-8.469298		16.056030		-148.382454		22.746340		28.411880		26.116458		-44.354131		-2.276647		3.269347		39.276071		0.914560		-6.278319		86.367233		-29.242439		10.428403		77.237006		102.379256		-1.813525		-8.976242		-0.550507		93.754306		-20.377549		26.218299		50.662872		120.084940		-20.850084		-6.224683		22.175093		
0.099470		-0.041401		-16.004905		88.410626		0.062378		1.747594		1.796500		83.245171		-2.849828		2.207830		-149.311030		25.655509		-3.281009		9.285137		80.156269		-8.540384		16.110633		-148.236106		22.691339		28.261836		26.183391		-43.936093		-2.139330		3.346967		39.376087		0.984571		-6.258756		87.325523		-28.988402		10.635807		77.039240		102.434894		-1.697752		-8.880579		-0.494808		94.538744		-20.245975		26.310784		50.533447		120.202946		-20.699028		-6.078739		22.044757		
0.101894		0.214019		-16.314839		88.485408		0.062587		1.748034		1.793810		82.944592		-2.722114		1.821638		-149.086905		25.761610		-3.497133		9.236103		80.061553		-8.630006		16.353820		-148.109451		22.557101		28.125470		26.304681		-43.554075		-1.908380		3.486184		39.263487		0.985504		-6.169372		88.344492		-28.851089		11.080039		76.848082		102.622032		-1.539717		-8.694190		-0.371083		95.349290		-20.220550		26.618897		50.433074		120.425133		-20.406222		-5.846358		21.830770		
0.104318		0.390717		-16.669305		88.493612		0.062825		1.748500		1.791105		82.727661		-2.591390		1.548835		-148.878868		25.805547		-3.618176		9.204195		79.989729		-8.748836		16.476299		-147.959641		22.460324		28.091237		26.381787		-43.138538		-1.785967		3.611826		39.310867		1.048702		-6.141276		89.268055		-28.605853		11.319896		76.657141		102.768478		-1.503379		-8.531755		-0.308846		96.088105		-20.091042		26.747574		50.343344		120.544636		-20.237088		-5.658420		21.683731		
0.106742		0.629006		-16.939569		88.514335		0.063092		1.749055		1.788277		82.379872		-2.435648		1.171913		-148.651565		25.875633		-3.919837		9.135230		79.832991		-8.879849		16.750081		-147.813543		22.254607		28.197007		26.560099		-42.796435		-1.593512		3.786090		39.187840		1.015658		-6.036649		90.265241		-28.467646		11.800556		76.501072		103.162990		-1.547020		-8.227754		-0.150091		96.848317		-20.074916		27.077992		50.326438		120.758862		-19.930085		-5.275465		21.388855		
0.109167		0.784816		-17.270929		88.457885		0.063348		1.749639		1.785373		82.121161		-2.266050		0.955165		-148.412868		25.908123		-4.105469		9.084348		79.673072		-9.033736		16.909075		-147.639127		22.099435		28.295737		26.691969		-42.390710		-1.503261		3.937233		39.206116		1.058631		-5.994098		91.155673		-28.232808		12.115439		76.335042		103.459764		-1.617661		-7.995502		-0.037687		97.525597		-19.981770		27.237813		50.284739		120.882069		-19.732024		-4.975406		21.167565		
0.111591		0.930022		-17.592345		88.399171		0.063561		1.750308		1.782363		81.845133		-2.083765		0.692562		-148.166881		25.880128		-4.516194		8.790049		79.503921		-9.183891		17.103175		-147.431770		21.827589		28.747158		27.634146		-41.991714		-1.404882		4.042540		39.148434		1.081159		-5.896131		92.022651		-27.928646		12.481457		76.188125		104.412361		-2.244495		-7.668984		0.831959		98.087528		-20.057284		27.441108		50.631374		121.000232		-19.085905		-4.081138		19.855353		
0.114015		1.044786		-17.816437		88.314285		0.063673		1.751131		1.779199		81.439748		-1.899208		0.545361		-147.924726		25.924485		-4.686902		8.617107		79.218915		-9.320106		17.170218		-147.231609		21.494453		28.920272		28.226722		-41.697410		-1.330415		4.196100		39.101949		1.010520		-5.788442		92.915346		-27.754808		12.884417		76.043691		105.007820		-2.527669		-7.463014		1.459002		98.708715		-20.016433		27.617394		50.732870		121.128911		-18.571513		-3.601729		19.046693		
0.116439		1.102883		-18.079209		88.180417		0.063692		1.751989		1.775923		81.078779		-1.741632		0.532046		-147.676173		25.971196		-4.645634		8.605661		78.930800		-9.460044		17.079637		-147.025103		21.270965		28.873603		28.301974		-41.357591		-1.326504		4.367410		39.148647		1.004659		-5.756030		93.710769		-27.580992		13.124070		75.885486		105.148870		-2.495950		-7.366931		1.591122		99.288012		-19.832421		27.650181		50.641916		121.198237		-18.413477		-3.550793		18.947741		
0.118864		1.152106		-18.263439		88.055447		0.063585		1.752959		1.772455		80.613401		-1.621341		0.545485		-147.417915		26.005336		-4.596068		8.603321		78.542038		-9.578381		16.956978		-146.814816		20.968538		28.816793		28.441576		-41.089591		-1.295849		4.528981		39.106860		0.936130		-5.694207		94.536908		-27.451603		13.483656		75.735126		105.505429		-2.502420		-7.215217		1.761082		99.814465		-19.696417		27.684133		50.624004		121.284122		-18.214782		-3.408465		18.806495		
